<?xml version="1.0" encoding="UTF-8"?>
<svg version="1.1" xmlns="http://www.w3.org/2000/svg" width="512" height="512">
<path d="M0 0 C1.48043793 -0.01469078 1.48043793 -0.01469078 2.99078369 -0.02967834 C65.55037001 -0.52195753 130.19961666 10.77328079 181.4296875 49.23828125 C182.34621094 49.9240625 183.26273437 50.60984375 184.20703125 51.31640625 C214.98618112 75.23953695 236.066718 107.03766281 244.4296875 145.23828125 C244.59339844 145.97981445 244.75710938 146.72134766 244.92578125 147.48535156 C254.2598573 192.74790631 249.29255371 249.53225861 224.30517578 289.01513672 C211.534412 308.406576 194.58711895 324.32194601 178.15600586 340.54370117 C177.2563208 341.4329126 176.35663574 342.32212402 175.4296875 343.23828125 C174.67461914 343.96845459 173.91955078 344.69862793 173.14160156 345.45092773 C171.13582324 347.54509532 170.27285456 349.41251288 169.2421875 352.11328125 C168.91863281 352.93570312 168.59507812 353.758125 168.26171875 354.60546875 C160.06396386 380.54578234 172.80332206 413.84519819 181.53369141 438.01586914 C184.21871502 445.67296673 186.39938522 453.16676953 182.8671875 460.92578125 C182.57714844 461.61027344 182.28710938 462.29476563 181.98828125 463 C176.63561231 470.68691554 169.79191068 472.77857181 160.98828125 474.97265625 C159.7301915 475.30271667 158.47210175 475.6327771 157.17588806 475.97283936 C153.678465 476.88949039 150.17507458 477.78110633 146.67012787 478.66848755 C142.81576339 479.64873796 138.96719987 480.65133627 135.11767578 481.65039062 C125.80745309 484.06106354 116.488623 486.43745821 107.16805649 488.80777359 C99.00191191 490.88452846 90.83659229 492.96451628 82.671875 495.046875 C81.78575468 495.27275488 80.89963436 495.49863476 79.98666191 495.73135948 C69.07723048 498.51388271 58.18351386 501.34423929 47.3125 504.2734375 C46.23002487 504.56348663 45.14754974 504.85353577 44.03227234 505.15237427 C39.2706212 506.42863556 34.51360474 507.71800565 29.76391602 509.03808594 C8.33830687 514.87404463 8.33830687 514.87404463 -1.5703125 510.17578125 C-8.43170089 506.19563994 -11.52013388 498.62134896 -14.4453125 491.61328125 C-23.6025994 470.46580003 -35.50728255 449.80593516 -57.3515625 439.98828125 C-73.64608496 433.94082962 -91.35585494 437.46429385 -108.0703125 439.73828125 C-152.9144123 445.83755653 -152.9144123 445.83755653 -171.5703125 433.23828125 C-172.18261719 432.85542969 -172.79492188 432.47257812 -173.42578125 432.078125 C-180.04652487 427.29891272 -184.28281181 418.33618859 -186.24609375 410.5625 C-187.46562409 401.82008372 -186.05879329 393.927013 -181.375 386.2890625 C-180.15062685 383.16869405 -180.4852753 381.38612681 -181.5703125 378.23828125 C-184.45044374 376.09817797 -184.45044374 376.09817797 -188.0078125 374.55078125 C-194.39532592 371.50076112 -194.39532592 371.50076112 -196.5703125 368.23828125 C-197.21528827 361.78852355 -196.14400783 358.59882425 -192.5703125 353.23828125 C-191.9103125 353.23828125 -191.2503125 353.23828125 -190.5703125 353.23828125 C-191.9770058 348.38120817 -194.91430068 345.74739668 -198.6328125 342.55078125 C-205.38236877 336.64785921 -205.38236877 336.64785921 -205.9453125 332.42578125 C-205.31948316 327.1062319 -201.58958793 325.04520763 -197.5703125 321.86328125 C-193.02714973 317.88801383 -189.97119751 314.60350281 -188.9453125 308.55078125 C-189.25750145 305.13954135 -189.25750145 305.13954135 -191.71875 303.171875 C-194.72220446 301.13528602 -197.37708785 300.10275493 -200.8203125 298.98828125 C-207.82828349 296.41100247 -214.31771857 292.71449684 -217.78515625 285.82421875 C-219.47256542 280.26668208 -219.77379677 273.73534154 -217.0078125 268.48828125 C-211.48035657 260.38006192 -203.20494647 254.59428674 -195.5390625 248.66796875 C-186.69786432 241.45731941 -176.9915256 230.27689147 -173.5703125 219.23828125 C-173.23520507 214.68192018 -173.80361838 212.13365689 -176.1953125 208.26171875 C-177.00742188 206.88306641 -177.00742188 206.88306641 -177.8359375 205.4765625 C-178.98181871 203.58482618 -180.13791549 201.6992359 -181.3046875 199.8203125 C-185.3725372 192.85654122 -186.779276 187.28433725 -185.5703125 179.23828125 C-184.76835149 176.37714735 -183.63948154 173.86261843 -182.2578125 171.23828125 C-177.065417 161.0052513 -175.29692111 150.51507769 -174.1953125 139.17578125 C-170.18337245 102.64672709 -153.72188013 68.45818001 -125.2578125 44.61328125 C-123.37540181 43.1376627 -121.47887796 41.67991158 -119.5703125 40.23828125 C-118.52359375 39.43777344 -117.476875 38.63726562 -116.3984375 37.8125 C-83.4953024 13.17244563 -40.93626838 0.33770245 0 0 Z " fill="#FDD1A3" transform="translate(241.5703125,-0.23828125)"/>
<path d="M0 0 C4.86739951 3.52585477 9.2475018 7.19752226 12.8359375 12.0390625 C14.94485232 14.85822797 14.94485232 14.85822797 17.9296875 14.97265625 C21.94043374 14.51905995 24.54924618 13.15638293 28.0859375 11.2265625 C39.75090552 5.13079347 50.49448914 3.85665215 63.3984375 7.2265625 C77.90618274 11.82657928 87.84702485 20.54582139 95.58203125 33.453125 C97.2109375 36.6015625 97.2109375 36.6015625 98.08984375 39.875 C98.94796833 42.80615654 98.94796833 42.80615654 101.6796875 43.8515625 C102.68 44.0990625 103.6803125 44.3465625 104.7109375 44.6015625 C118.12175134 48.49968183 128.04798369 56.62763785 135.4453125 68.37890625 C141.97861529 80.30362926 143.44410152 94.52627638 139.84423828 107.66625977 C138.81548669 110.81001992 137.44003177 113.70920525 135.9609375 116.6640625 C135.65736328 117.27185547 135.35378906 117.87964844 135.04101562 118.50585938 C133.26565626 121.94215786 131.37594321 124.80579716 128.7109375 127.6015625 C125.92490113 130.32774554 125.92490113 130.32774554 126.0859375 133.5390625 C126.96944894 135.94417698 127.91108774 138.03114813 129.0859375 140.2890625 C135.52322105 152.78772983 136.32057356 168.02969388 132.3828125 181.49609375 C125.93855448 198.57337751 117.41868846 208.46306186 102.2109375 218.6015625 C101.2209375 218.6015625 100.2309375 218.6015625 99.2109375 218.6015625 C99.2934375 219.8184375 99.3759375 221.0353125 99.4609375 222.2890625 C99.41064872 232.95028345 95.23684015 242.69742201 88.2109375 250.6015625 C79.72925936 258.93644236 69.90633869 263.05684798 58.0859375 263.1640625 C45.62373006 262.94755259 37.01395505 258.40458005 28.2109375 249.6015625 C26.13050037 249.47520827 24.04517538 249.42574545 21.9609375 249.4140625 C13.53675734 248.97802833 7.40428061 245.7885692 0.2109375 241.6015625 C0.55705078 242.49681641 0.55705078 242.49681641 0.91015625 243.41015625 C3.86190218 251.26203376 6.2497876 259.22666683 8.54345703 267.28857422 C9.23411129 269.68186552 9.95313921 272.06540749 10.67578125 274.44921875 C11.14635242 276.04151335 11.61641831 277.63395738 12.0859375 279.2265625 C12.31337646 279.96011963 12.54081543 280.69367676 12.77514648 281.44946289 C14.13511238 286.15297047 14.40120416 289.73005875 13.2109375 294.6015625 C10.58527623 297.22722377 9.44147385 296.90004453 5.7734375 296.9140625 C-0.10966307 296.81568289 -5.84427643 296.20413542 -11.6640625 295.3515625 C-12.45997803 295.24239502 -13.25589355 295.13322754 -14.07592773 295.02075195 C-20.43088932 294.00542284 -25.41617109 292.25883889 -29.83354187 287.3120575 C-31.79263305 284.59661346 -33.02361047 282.13491171 -34.25708008 279.03051758 C-34.67945953 277.97530914 -35.10183899 276.92010071 -35.53701782 275.83291626 C-37.08923083 271.82686965 -38.63556902 267.81938883 -40.14836121 263.79826355 C-41.79406059 259.42849317 -43.47915813 255.07413451 -45.16186523 250.71850586 C-46.04018484 248.42737205 -46.90767122 246.13205658 -47.7644043 243.83276367 C-49.01789854 240.47664935 -50.31144904 237.13839388 -51.61328125 233.80078125 C-51.98345871 232.78086594 -52.35363617 231.76095062 -52.73503113 230.71012878 C-55.76543145 223.11063357 -59.8107094 219.69987356 -66.7890625 215.6015625 C-67.1190625 215.2715625 -67.4490625 214.9415625 -67.7890625 214.6015625 C-69.87060185 214.46620228 -71.95467456 214.36940785 -74.0390625 214.2890625 C-88.40076448 213.31118239 -99.35421127 208.7063188 -109.1640625 198.1015625 C-112.23684951 194.47517622 -114.63010492 190.8295211 -116.7890625 186.6015625 C-117.91441406 187.19904297 -117.91441406 187.19904297 -119.0625 187.80859375 C-132.48102153 194.75445313 -145.08443258 198.57354152 -160.1640625 193.9765625 C-167.87763882 191.0385516 -174.25476055 186.73416737 -179.7890625 180.6015625 C-180.26988281 180.12460938 -180.75070313 179.64765625 -181.24609375 179.15625 C-190.74177506 169.2038144 -192.23993702 156.73526017 -192.08203125 143.66796875 C-191.81890691 136.43538864 -189.78395923 130.59390759 -185.7890625 124.6015625 C-185.67701454 119.61542826 -186.82233414 115.14962184 -188.7890625 110.6015625 C-192.22132073 94.13166148 -189.41916795 79.56162272 -180.62890625 65.2890625 C-174.17100289 55.85586184 -165.05240318 49.7475553 -154.1015625 46.6640625 C-148.83328436 44.80393586 -146.79802382 42.75816698 -144.3425293 37.9465332 C-143.05000195 35.13252379 -141.81846981 32.29644217 -140.61376953 29.44384766 C-135.84027873 18.78050794 -126.04261042 13.17286006 -115.7890625 8.6015625 C-111.41861623 7.14474708 -107.18028568 7.37666859 -102.6015625 7.3515625 C-101.22000977 7.320625 -101.22000977 7.320625 -99.81054688 7.2890625 C-93.6996684 7.25436624 -89.41546487 8.26595845 -83.7890625 10.6015625 C-79.98904385 10.7158962 -79.98904385 10.7158962 -76.7890625 9.6015625 C-76.37914062 8.71984375 -76.37914062 8.71984375 -75.9609375 7.8203125 C-71.66958107 -0.30465567 -58.02494681 -5.68544032 -49.7890625 -8.3984375 C-32.52535118 -12.31828616 -14.84440164 -9.61680505 0 0 Z " fill="#DF646E" transform="translate(300.7890625,54.3984375)"/>
<path d="M0 0 C0.98695862 -0.00979385 1.97391724 -0.01958771 2.99078369 -0.02967834 C65.55037001 -0.52195753 130.19961666 10.77328079 181.4296875 49.23828125 C182.34621094 49.9240625 183.26273438 50.60984375 184.20703125 51.31640625 C214.98618112 75.23953695 236.066718 107.03766281 244.4296875 145.23828125 C244.59339844 145.97981445 244.75710938 146.72134766 244.92578125 147.48535156 C254.2598573 192.74790631 249.29255371 249.53225861 224.30517578 289.01513672 C211.534412 308.406576 194.58711895 324.32194601 178.15600586 340.54370117 C176.80647827 341.87751831 176.80647827 341.87751831 175.4296875 343.23828125 C174.67461914 343.96845459 173.91955078 344.69862793 173.14160156 345.45092773 C171.13582324 347.54509532 170.27285456 349.41251288 169.2421875 352.11328125 C168.91863281 352.93570312 168.59507812 353.758125 168.26171875 354.60546875 C160.06396386 380.54578234 172.80332206 413.84519819 181.53369141 438.01586914 C184.21871502 445.67296673 186.39938522 453.16676953 182.8671875 460.92578125 C182.57714844 461.61027344 182.28710938 462.29476563 181.98828125 463 C176.63561231 470.68691554 169.79191068 472.77857181 160.98828125 474.97265625 C159.10114662 475.46774689 159.10114662 475.46774689 157.17588806 475.97283936 C153.678465 476.88949039 150.17507458 477.78110633 146.67012787 478.66848755 C142.81576339 479.64873796 138.96719987 480.65133627 135.11767578 481.65039062 C125.80745309 484.06106354 116.488623 486.43745821 107.16805649 488.80777359 C99.00191191 490.88452846 90.83659229 492.96451628 82.671875 495.046875 C81.78575468 495.27275488 80.89963436 495.49863476 79.98666191 495.73135948 C69.07723048 498.51388271 58.18351386 501.34423929 47.3125 504.2734375 C46.23002487 504.56348663 45.14754974 504.85353577 44.03227234 505.15237427 C39.2706212 506.42863556 34.51360474 507.71800565 29.76391602 509.03808594 C7.90117924 514.99422554 7.90117924 514.99422554 -1.8828125 509.73828125 C-3.13001436 508.93219028 -4.36717294 508.10876982 -5.5703125 507.23828125 C-5.5703125 504.92578125 -5.5703125 504.92578125 -4.5703125 502.23828125 C1.47928395 499.29428483 8.09507972 497.98248097 14.6171875 496.42578125 C22.43857755 494.51824175 30.20366744 492.50149641 37.9296875 490.23828125 C46.55836649 487.71565768 55.2425183 485.49644739 63.97167969 483.34985352 C70.33389502 481.78000328 76.62295701 480.07394994 82.91015625 478.2265625 C87.24853071 477.0083508 91.61586248 475.93553126 95.9921875 474.86328125 C102.93612095 473.15893312 109.81599597 471.30339475 116.6796875 469.30078125 C124.36844086 467.05937299 132.09099567 465.029093 139.8671875 463.11328125 C154.71578376 460.6343968 154.71578376 460.6343968 167.4296875 454.23828125 C167.19172937 447.13235916 164.69149143 440.97227745 162.2421875 434.36328125 C157.52601645 421.19898798 154.15120048 407.94454107 151.4296875 394.23828125 C151.21143311 393.15667725 151.21143311 393.15667725 150.98876953 392.05322266 C147.62283623 374.75867293 147.07779061 353.22935117 157.203125 337.9375 C163.89772787 329.82176214 171.65429965 322.47518058 179.59765625 315.59375 C189.78936582 306.75636663 197.13542169 297.08067527 203.4296875 285.23828125 C203.78160156 284.58230957 204.13351562 283.92633789 204.49609375 283.25048828 C226.46060648 241.58072773 227.59985028 181.7750636 214.4296875 137.23828125 C201.55900566 96.27863797 172.15635218 64.24750328 135.26074219 43.27929688 C133.51004548 42.28396744 131.77034194 41.26937603 130.03125 40.25390625 C111.95292192 30.09754216 92.20564509 23.29296768 72.22314453 17.98339844 C69.6371661 17.29362338 67.06334629 16.56903809 64.48828125 15.83984375 C42.40017301 9.84815259 18.26925215 7.70758737 -4.5703125 7.23828125 C-5.48296875 7.2125 -6.395625 7.18671875 -7.3359375 7.16015625 C-20.39669601 6.82179463 -33.02115006 7.33085604 -45.95556641 9.25878906 C-47.36781494 9.46713379 -47.36781494 9.46713379 -48.80859375 9.6796875 C-49.63399658 9.81060791 -50.45939941 9.94152832 -51.30981445 10.07641602 C-53.64722114 10.24378837 -55.34709671 9.93684224 -57.5703125 9.23828125 C-48.11800753 6.58702498 -38.70305482 4.08197699 -29.0078125 2.48828125 C-28.3080127 2.37315186 -27.60821289 2.25802246 -26.88720703 2.1394043 C-17.94044149 0.74391139 -9.05194409 0.07467373 0 0 Z " fill="#FEBD86" transform="translate(241.5703125,-0.23828125)"/>
<path d="M0 0 C8.4144311 1.10676301 15.12073664 7.56390188 20.375 13.875 C27.62977116 23.56785 31.38225874 33.39832519 31.25 45.5 C31.25773437 46.20769531 31.26546875 46.91539062 31.2734375 47.64453125 C31.24450272 55.55819331 29.29579936 61.97888731 25.75 69.0625 C25.44642578 69.67029297 25.14285156 70.27808594 24.83007812 70.90429688 C23.05471876 74.34059536 21.16500571 77.20423466 18.5 80 C15.71396363 82.72618304 15.71396363 82.72618304 15.875 85.9375 C16.75851144 88.34261448 17.70015024 90.42958563 18.875 92.6875 C25.31228355 105.18616733 26.10963606 120.42813138 22.171875 133.89453125 C15.72761698 150.97181501 7.20775096 160.86149936 -8 171 C-8.99 171 -9.98 171 -11 171 C-10.9175 172.216875 -10.835 173.43375 -10.75 174.6875 C-10.80028878 185.34872095 -14.97409735 195.09585951 -22 203 C-30.48167814 211.33487986 -40.30459881 215.45528548 -52.125 215.5625 C-64.58720744 215.34599009 -73.19698245 210.80301755 -82 202 C-84.08043713 201.87364577 -86.16576212 201.82418295 -88.25 201.8125 C-96.67418016 201.37646583 -102.80665689 198.1870067 -110 194 C-109.65388672 194.89525391 -109.65388672 194.89525391 -109.30078125 195.80859375 C-106.34903532 203.66047126 -103.9611499 211.62510433 -101.66748047 219.68701172 C-100.97682621 222.08030302 -100.25779829 224.46384499 -99.53515625 226.84765625 C-99.06458508 228.43995085 -98.59451919 230.03239488 -98.125 231.625 C-97.89756104 232.35855713 -97.67012207 233.09211426 -97.43579102 233.84790039 C-96.07582512 238.55140797 -95.80973334 242.12849625 -97 247 C-99.62566127 249.62566127 -100.76946365 249.29848203 -104.4375 249.3125 C-110.32060057 249.21412039 -116.05521393 248.60257292 -121.875 247.75 C-123.06887329 247.58624878 -123.06887329 247.58624878 -124.28686523 247.41918945 C-130.64182682 246.40386034 -135.62710859 244.65727639 -140.04447937 239.710495 C-142.00357055 236.99505096 -143.23454797 234.53334921 -144.46801758 231.42895508 C-144.89039703 230.37374664 -145.31277649 229.31853821 -145.74795532 228.23135376 C-147.30016833 224.22530715 -148.84650652 220.21782633 -150.35929871 216.19670105 C-152.00499809 211.82693067 -153.69009563 207.47257201 -155.37280273 203.11694336 C-156.25112234 200.82580955 -157.11860872 198.53049408 -157.9753418 196.23120117 C-159.22883604 192.87508685 -160.52238654 189.53683138 -161.82421875 186.19921875 C-162.19439621 185.17930344 -162.56457367 184.15938812 -162.94596863 183.10856628 C-165.97636895 175.50907107 -170.0216469 172.09831106 -177 168 C-177.33 167.67 -177.66 167.34 -178 167 C-180.08153935 166.86463978 -182.16561206 166.76784535 -184.25 166.6875 C-198.54290234 165.71430441 -209.43530967 161.11751815 -219.3125 150.6875 C-224.89965028 144.07321704 -229.90504723 135.31735514 -230.0625 126.5 C-231.33126429 121.76327998 -233.5905595 121.08214876 -237.64453125 118.65234375 C-243.96209555 114.22061954 -247.48560751 106.40925914 -249 99 C-250.20355729 89.72815125 -247.44596104 82.1368061 -242.0625 74.625 C-238.60231125 70.35166689 -236.10412943 67.29531641 -230.4375 66.5 C-227 67 -227 67 -224.5625 68.5625 C-222.3104273 72.07573341 -222.23428471 73.89298161 -223 78 C-224.61363706 80.00342471 -226.32625524 81.6454752 -228.2734375 83.32421875 C-230.7061945 85.68542408 -231.82260275 87.75361155 -232.30078125 91.11328125 C-232.32891565 96.39316953 -231.74301045 100.33688223 -229 105 C-226.04367547 107.36505963 -223.15634911 108.92483216 -219.75 110.5625 C-217 112 -217 112 -215 115 C-214.85283458 116.80843663 -214.7789113 118.62331566 -214.75 120.4375 C-214.11648192 129.3067531 -210.64427504 136.94183941 -204.125 143.0625 C-196.71401716 149.36664774 -188.53569054 149.43809545 -179.33398438 149.17578125 C-174.28959323 149.22973196 -171.66434295 149.77273185 -168.04296875 153.42578125 C-167.02715663 154.61591804 -166.0126646 155.8071839 -165 157 C-159.41377215 161.12316818 -152.65634284 160.98987768 -146 160 C-142.31799733 158.41158988 -139.20683414 156.38964861 -136 154 C-133 152 -133 152 -130.3125 152.125 C-126.83251238 153.04424201 -123.98906399 154.36878618 -120.83203125 156.0625 C-113.48400468 159.82268417 -102.80224848 158.96846375 -95.125 156.5 C-85.11930404 152.20972384 -80.13264167 145.38728774 -75.5078125 135.7578125 C-74 133 -74 133 -71 131 C-67.63812807 131.18010028 -65.00081858 131.41887954 -62.0625 133.125 C-60.32567044 136.18999333 -60.27596635 138.65060856 -61 142 C-63.90456682 149.35623968 -67.69373944 155.20013381 -73 161 C-73.33 161.99 -73.66 162.98 -74 164 C-59.31853484 169.50554944 -43.06509674 167.69531263 -28.9375 161.49609375 C-23.66224071 158.8093593 -18.48054968 155.56851244 -14.34765625 151.2890625 C-13 150 -13 150 -11 150 C-10.73832031 149.4328125 -10.47664062 148.865625 -10.20703125 148.28125 C-8.9021879 145.8151383 -7.36336506 143.72953223 -5.6875 141.5 C4.40811627 127.29447731 6.22961815 110.69861711 3.65136719 93.70166016 C2.54341763 88.76256353 0.70469438 84.34701151 -1.6328125 79.87890625 C-3.4758275 75.99804324 -3.22317266 74.10122597 -2 70 C-0.64998578 68.16449171 0.83239156 66.53589067 2.37890625 64.86328125 C11.36903359 54.53005055 12.84061263 41.18516479 12 28 C11.15747566 17.40603653 5.38267095 8.90527519 0 0 Z " fill="#DC4955" transform="translate(411,102)"/>
<path d="M0 0 C4.88817037 3.01013005 9.32483492 6.41770717 13.30859375 10.5546875 C14.98650289 12.55685867 14.98650289 12.55685867 17.17578125 12.40234375 C19.35178382 11.42976369 19.35178382 11.42976369 20.80078125 9.15234375 C25.70341426 3.34659414 34.69206163 -1.81309353 42.22729492 -2.97705078 C44.44920672 -3.1341531 46.63594231 -3.17922797 48.86328125 -3.16015625 C49.65275146 -3.15371094 50.44222168 -3.14726563 51.25561523 -3.140625 C61.63646969 -2.81916429 69.72229289 0.90156962 77.20703125 8.1015625 C80.51240973 11.85946304 82.92663723 15.88480847 85.17578125 20.33984375 C85.51609375 20.95085937 85.85640625 21.561875 86.20703125 22.19140625 C89.61192096 29.34798 89.41001645 39.4865799 87.484375 47.05859375 C86.54291613 49.29603574 85.41955492 51.25684434 84.17578125 53.33984375 C83.80832794 53.97402725 83.44087463 54.60821075 83.06228638 55.26161194 C78.38700714 62.79067028 72.16883774 68.76393871 65.91796875 74.9609375 C64.72492176 76.15346485 63.53239524 77.34651309 62.34036255 78.54005432 C59.8554598 81.02486788 57.36552113 83.50448146 54.87158203 85.98022461 C51.67757244 89.15143737 48.49487543 92.3337259 45.31561089 95.5197134 C42.86075086 97.97791397 40.40093229 100.43110207 37.93948746 102.8827076 C36.76360412 104.05474849 35.58905814 105.22813273 34.41588974 106.40289116 C32.7793697 108.03978226 31.13650192 109.67002131 29.49169922 111.29858398 C28.55937469 112.22630112 27.62705017 113.15401825 26.66647339 114.10984802 C22.79796301 117.57344816 19.7077174 118.99210498 14.38671875 118.84375 C8.38054442 117.47485161 4.03165178 112.38164192 0.19042969 107.85546875 C-3.96984854 103.08018936 -8.44179892 98.65292447 -12.96108055 94.21951294 C-14.46599282 92.74169199 -15.96611086 91.25915566 -17.46492004 89.77514648 C-21.72059277 85.56179108 -25.97909744 81.35142471 -30.25366211 77.15722656 C-32.88350389 74.57615076 -35.50326664 71.98520166 -38.11690712 69.38772583 C-39.10632651 68.40813172 -40.09937187 67.43218459 -41.0962429 66.46017456 C-50.29281324 57.48814598 -55.73105174 49.307759 -56.19921875 36.08984375 C-55.99853596 25.1526315 -51.64972443 15.62337445 -44.234375 7.625 C-32.8414382 -2.91011568 -14.29572919 -6.93799638 0 0 Z " fill="#DC4955" transform="translate(263.82421875,115.66015625)"/>
<path d="M0 0 C8.4144311 1.10676301 15.12073664 7.56390188 20.375 13.875 C27.62977116 23.56785 31.38225874 33.39832519 31.25 45.5 C31.25773438 46.20769531 31.26546875 46.91539062 31.2734375 47.64453125 C31.24450272 55.55819331 29.29579936 61.97888731 25.75 69.0625 C25.44642578 69.67029297 25.14285156 70.27808594 24.83007812 70.90429688 C23.05471876 74.34059536 21.16500571 77.20423466 18.5 80 C15.71396363 82.72618304 15.71396363 82.72618304 15.875 85.9375 C16.75851144 88.34261448 17.70015024 90.42958563 18.875 92.6875 C25.31228355 105.18616733 26.10963606 120.42813138 22.171875 133.89453125 C15.72761698 150.97181501 7.20775096 160.86149936 -8 171 C-8.99 171 -9.98 171 -11 171 C-10.9175 172.216875 -10.835 173.43375 -10.75 174.6875 C-10.80028878 185.34872095 -14.97409735 195.09585951 -22 203 C-30.48167814 211.33487986 -40.30459881 215.45528548 -52.125 215.5625 C-64.58720744 215.34599009 -73.19698245 210.80301755 -82 202 C-84.12119924 201.84806837 -86.24855315 201.77816486 -88.375 201.75 C-96.58642039 201.29334016 -103.10052775 198.63509231 -109.6953125 193.7421875 C-111.70061634 191.06444644 -112.31491243 188.20951752 -113.1875 185 C-113.53167969 183.7625 -113.87585938 182.525 -114.23046875 181.25 C-115 178 -115 178 -115 175 C-113.71029297 174.96132813 -113.71029297 174.96132813 -112.39453125 174.921875 C-99.92153462 174.32338879 -89.6761672 171.42817646 -79 165 C-76.3125 163.5 -76.3125 163.5 -74 163 C-71.9737129 163.94560065 -69.97620986 164.95377125 -68 166 C-52.40818677 168.90694823 -36.69694024 166.61291822 -23.125 158.22265625 C-18.49473058 155.04792314 -18.49473058 155.04792314 -14.34765625 151.2890625 C-13 150 -13 150 -11 150 C-10.73832031 149.4328125 -10.47664063 148.865625 -10.20703125 148.28125 C-8.9021879 145.8151383 -7.36336506 143.72953223 -5.6875 141.5 C4.40811627 127.29447731 6.22961815 110.69861711 3.65136719 93.70166016 C2.54341763 88.76256353 0.70469438 84.34701151 -1.6328125 79.87890625 C-3.4758275 75.99804324 -3.22317266 74.10122597 -2 70 C-0.64998578 68.16449171 0.83239156 66.53589067 2.37890625 64.86328125 C11.36903359 54.53005055 12.84061263 41.18516479 12 28 C11.15747566 17.40603653 5.38267095 8.90527519 0 0 Z " fill="#DC4A55" transform="translate(411,102)"/>
<path d="M0 0 C3.29827037 0.84812667 5.91538052 2.55475727 8.75 4.375 C18.44524209 10.55298321 28.1626945 13.39277791 39.625 13.375 C40.4922168 13.37628906 41.35943359 13.37757813 42.25292969 13.37890625 C50.00082874 13.25306367 56.7134151 11.70230963 64 9 C64.73919472 20.76551602 62.59746929 29.87712945 54.90234375 39.00390625 C47.14296341 47.14567905 37.55466727 52.08813122 26.24145508 52.54321289 C13.66765624 52.64569201 5.50561938 49.31741696 -4 41 C-4.66 40.34 -5.32 39.68 -6 39 C-8.12119924 38.84806837 -10.24855315 38.77816486 -12.375 38.75 C-20.58642039 38.29334016 -27.10052775 35.63509231 -33.6953125 30.7421875 C-35.70061634 28.06444644 -36.31491243 25.20951752 -37.1875 22 C-37.53167969 20.7625 -37.87585938 19.525 -38.23046875 18.25 C-39 15 -39 15 -39 12 C-37.71029297 11.96132813 -37.71029297 11.96132813 -36.39453125 11.921875 C-22.58630279 11.25932096 -11.4501533 7.63343554 0 0 Z " fill="#D82F3C" transform="translate(335,265)"/>
<path d="M0 0 C8.34113846 3.93381202 12.81318603 9.93086763 17 18 C17.34289062 18.61359375 17.68578125 19.2271875 18.0390625 19.859375 C21.43025234 27.02207503 21.23462003 37.14522291 19.30859375 44.71875 C18.36713488 46.95619199 17.24377367 48.91700059 16 51 C15.63254669 51.6341835 15.26509338 52.268367 14.88650513 52.92176819 C10.21122589 60.45082653 3.99305649 66.42409496 -2.2578125 72.62109375 C-3.45085949 73.8136211 -4.64338601 75.00666934 -5.8354187 76.20021057 C-8.32032145 78.68502413 -10.81026012 81.16463771 -13.30419922 83.64038086 C-16.49820881 86.81159362 -19.68090582 89.99388215 -22.86017036 93.17986965 C-25.31503039 95.63807022 -27.77484896 98.09125832 -30.23629379 100.54286385 C-31.41217713 101.71490474 -32.58672311 102.88828898 -33.75989151 104.06304741 C-35.39641155 105.69993851 -37.03927933 107.33017756 -38.68408203 108.95874023 C-40.08256882 110.35031593 -40.08256882 110.35031593 -41.50930786 111.77000427 C-45.40825411 115.2608546 -48.47564902 116.60558357 -53.828125 116.53515625 C-58.11875945 115.47793157 -61.01852561 112.10834564 -64 109 C-62.53417985 105.57719483 -60.61937745 103.43519517 -57.9375 100.875 C-55.08428067 98.22095 -55.08428067 98.22095 -53 95 C-52.34 95 -51.68 95 -51 95 C-50.7594841 94.43187592 -50.5189682 93.86375183 -50.27116394 93.27841187 C-48.74057503 90.53501125 -46.91981935 88.73094767 -44.66137695 86.54541016 C-43.76316727 85.66994537 -42.86495758 84.79448059 -41.93952942 83.89248657 C-41.45903452 83.42833973 -40.97853962 82.96419289 -40.48348427 82.48598099 C-38.96675095 81.01822748 -37.45877147 79.54200225 -35.95317078 78.06283569 C-31.67250823 73.85813723 -27.38603695 69.65974337 -23.0715332 65.48974609 C-20.42758369 62.9331168 -17.80200467 60.35874469 -15.18663597 57.77289963 C-14.19694331 56.80090497 -13.2009162 55.83530871 -12.19799232 54.8769722 C-4.37913804 47.39842403 4.20795149 37.01716762 5.203125 25.6875 C5.32590026 18.64838502 4.17267046 12.67698726 2 6 C1.4121875 4.1746875 1.4121875 4.1746875 0.8125 2.3125 C0.4103125 1.1678125 0.4103125 1.1678125 0 0 Z " fill="#D82F3C" transform="translate(332,118)"/>
<path d="M0 0 C0.99 0 1.98 0 3 0 C3.235979 0.85416504 3.47195801 1.70833008 3.71508789 2.58837891 C4.82657531 6.60179918 5.94305712 10.61379262 7.0625 14.625 C7.26464111 15.35018829 7.46678223 16.07537659 7.67504883 16.82254028 C10.50817202 26.96459914 13.47062178 37.04112326 16.87915039 47.00830078 C18.5951766 52.1568977 20.24620637 57.5138479 20 63 C19.34 63.66 18.68 64.32 18 65 C11.49132252 64.66334427 5.13534155 63.32398607 -1.23876953 62.0168457 C-5.23600327 61.22259271 -8.93486223 60.94291646 -13 61 C-13.33596191 60.08863281 -13.67192383 59.17726563 -14.01806641 58.23828125 C-18.27805272 46.74750635 -22.80506428 35.37041086 -27.375 24 C-28.11865296 22.14589885 -28.86214348 20.29173255 -29.60546875 18.4375 C-31.40178068 13.95758259 -33.20026534 9.47854342 -35 5 C-33 4 -33 4 -30.25390625 4.91015625 C-28.64322266 5.44962891 -28.64322266 5.44962891 -27 6 C-17.42350388 7.195489 -9.62607085 5.13671637 -1 1 C-0.67 0.67 -0.34 0.34 0 0 Z " fill="#DF646D" transform="translate(279,272)"/>
<path d="M0 0 C0.85207031 0.42539062 1.70414062 0.85078125 2.58203125 1.2890625 C18.72421176 8.89831925 36.12242265 9.57784311 53.39453125 5.9140625 C50.04888105 15.19502483 43.08346842 20.68802276 34.39453125 24.9140625 C28.71074464 27.51744808 23.75700381 28.43642153 17.51953125 28.3515625 C16.7294165 28.34326416 15.93930176 28.33496582 15.12524414 28.32641602 C3.57986694 27.9929541 -4.52456217 22.99496908 -12.60546875 14.9140625 C-14.72666799 14.76213087 -16.8540219 14.69222736 -18.98046875 14.6640625 C-26.62545642 14.26127906 -32.10513146 11.80712165 -38.60546875 7.9140625 C-38.60546875 7.5840625 -38.60546875 7.2540625 -38.60546875 6.9140625 C-36.99091797 6.69363281 -36.99091797 6.69363281 -35.34375 6.46875 C-26.50180304 5.14738765 -19.3317934 3.3689201 -11.4375 -0.9765625 C-7.12415163 -2.66620517 -4.17217167 -1.73892612 0 0 Z " fill="#DC4A55" transform="translate(341.60546875,289.0859375)"/>
</svg>
